# xmcd
#
# Track frame offsets:
#	150
#	11270
#	24868
#	37021
#	49043
#	61344
#	74089
#	86691
#	98715
#	108602
#
# Disc length: 1587 seconds
#
# Revision: 0
# Processed by: cddbd v1.4PL0 Copyright (c) Steve Scherf et al.
# Submitted via: EasyCDDAExtractor 4.6.0.1
#
DISCID=7d06310a
DTITLE=STONWALL JACKSON - GREATEST HITS
DYEAR=2000
DGENRE=COUNTRY
TTITLE0=WATERLOO
TTITLE1=B.J. THE D.J.
TTITLE2=A WOUND TIME CAN'T ERASE
TTITLE3=LIFE TO GO
TTITLE4=DON'T BE ANGRY
TTITLE5=FRAULEIN
TTITLE6=ME AND YOU AND A DOG NAMED BOO
TTITLE7=I WASHED MY HANDS IN MUDDY WATER
TTITLE8=WHY I'M WALKIN'
TTITLE9=PICK ME UP ON YOUR WAY DOWN
EXTD=
EXTT0=
EXTT1=
EXTT2=
EXTT3=
EXTT4=
EXTT5=
EXTT6=
EXTT7=
EXTT8=
EXTT9=
PLAYORDER=
